<svg class="w-6 h-6" fill="currentColor" viewBox="0 0 20 20" xmlns="http://www.w3.org/2000/svg">
    <path d="M3.5 4.5L2 6.5v5c0 .8.3 1.5.9 2.1L4.5 12 3 10.5V7L4.5 5.5 6 7v2.5c0 .3.2.5.5.5h2L10 11.5 8.5 10H7V7.5c0-.8-.3-1.5-.9-2.1L3.5 4.5zm13 0l1.5 2v5c0 .8-.3 1.5-.9 2.1L15.5 12 17 10.5V7L15.5 5.5 14 7v2.5c0 .3-.2.5-.5.5h-2L10 11.5 11.5 10H13V7.5c0-.8.3-1.5.9-2.1L16.5 4.5zM10 12c-.8 0-1.5.3-2.1.9L6.5 14.5 5 13l1.5-1.5c.6-.6.9-1.3.9-2.1V7.5L10 5l2.5 2.5v1.9c0 .8.3 1.5.9 2.1L15 13l-1.5 1.5-1.4-1.6c-.6-.6-1.3-.9-2.1-.9z"/>
</svg>
